<?xml version="1.0" encoding="UTF-8"?>
<svg xmlns="http://www.w3.org/2000/svg" width="400" height="400" viewBox="0 0 400 400">
  <defs>
    <linearGradient id="grad1" gradientUnits="objectBoundingBox" x1="0.000" y1="0.000" x2="0.562" y2="1.204">
      <stop offset="17%" stop-color="#666699"/>
      <stop offset="44%" stop-color="#555588"/>
      <stop offset="80%" stop-color="#3f3f72"/>
      <stop offset="100%" stop-color="#333366"/>
    </linearGradient>
    <radialGradient id="grad2" gradientUnits="userSpaceOnUse" cx="196.63" cy="175.42" r="108.64" fx="196.63" fy="175.42">
      <stop offset="0%" stop-color="#ffff99"/>
      <stop offset="100%" stop-color="#ff9933"/>
    </radialGradient>
    <linearGradient id="grad3" gradientUnits="objectBoundingBox" x1="0.921" y1="1.059" x2="0.079" y2="-0.059">
      <stop offset="0%" stop-color="#ff9933"/>
      <stop offset="4%" stop-color="#ff9b35"/>
      <stop offset="92%" stop-color="#ffcb65"/>
      <stop offset="94%" stop-color="#ffcc66"/>
    </linearGradient>
    <linearGradient id="grad4" gradientUnits="objectBoundingBox" x1="0.000" y1="0.000" x2="1.169" y2="0.730">
      <stop offset="0%" stop-color="#666699"/>
      <stop offset="44%" stop-color="#505083"/>
      <stop offset="80%" stop-color="#3d3d70"/>
      <stop offset="100%" stop-color="#333366"/>
    </linearGradient>
    <radialGradient id="grad5" gradientUnits="userSpaceOnUse" cx="171.83" cy="293.42" r="140.44" fx="171.83" fy="293.42">
      <stop offset="0%" stop-color="#9999ff"/>
      <stop offset="100%" stop-color="#333366"/>
    </radialGradient>
    <radialGradient id="grad6" gradientUnits="userSpaceOnUse" cx="158.89" cy="269.88" r="140.57" fx="158.89" fy="269.88">
      <stop offset="0%" stop-color="#333366"/>
      <stop offset="100%" stop-color="#333333"/>
    </radialGradient>
    <linearGradient id="grad7" gradientUnits="objectBoundingBox" x1="0.000" y1="0.000" x2="0.562" y2="1.204">
      <stop offset="17%" stop-color="#ffffff"/>
      <stop offset="44%" stop-color="#cdcdcd"/>
      <stop offset="80%" stop-color="#8b8b8b"/>
      <stop offset="100%" stop-color="#666666"/>
    </linearGradient>
    <radialGradient id="grad8" gradientUnits="userSpaceOnUse" cx="196.63" cy="176.47" r="108.64" fx="196.63" fy="176.47">
      <stop offset="0%" stop-color="#ffff99"/>
      <stop offset="100%" stop-color="#ff9933"/>
    </radialGradient>
    <linearGradient id="grad9" gradientUnits="objectBoundingBox" x1="0.000" y1="0.000" x2="0.562" y2="1.204">
      <stop offset="17%" stop-color="#666699"/>
      <stop offset="44%" stop-color="#555588"/>
      <stop offset="80%" stop-color="#3f3f72"/>
      <stop offset="100%" stop-color="#333366"/>
    </linearGradient>
    <linearGradient id="grad10" gradientUnits="objectBoundingBox" x1="1.130" y1="0.821" x2="0.000" y2="0.000">
      <stop offset="0%" stop-color="#333366"/>
      <stop offset="20%" stop-color="#474785"/>
      <stop offset="56%" stop-color="#6c6cbc"/>
      <stop offset="100%" stop-color="#9999ff"/>
    </linearGradient>
    <linearGradient id="grad11" gradientUnits="objectBoundingBox" x1="1.207" y1="0.483" x2="0.000" y2="0.000">
      <stop offset="0%" stop-color="#ffcc00"/>
      <stop offset="20%" stop-color="#ffd61f"/>
      <stop offset="56%" stop-color="#ffe956"/>
      <stop offset="100%" stop-color="#ffff99"/>
    </linearGradient>
    <linearGradient id="grad12" gradientUnits="objectBoundingBox" x1="1.079" y1="0.094" x2="0.000" y2="0.000">
      <stop offset="0%" stop-color="#ffcc00"/>
      <stop offset="20%" stop-color="#ffd61f"/>
      <stop offset="56%" stop-color="#ffe956"/>
      <stop offset="100%" stop-color="#ffff99"/>
    </linearGradient>
    <linearGradient id="grad13" gradientUnits="objectBoundingBox" x1="1.207" y1="0.483" x2="0.000" y2="0.000">
      <stop offset="0%" stop-color="#ffcc00"/>
      <stop offset="20%" stop-color="#ffd61f"/>
      <stop offset="56%" stop-color="#ffe956"/>
      <stop offset="100%" stop-color="#ffff99"/>
    </linearGradient>
    <linearGradient id="grad14" gradientUnits="objectBoundingBox" x1="1.194" y1="0.366" x2="0.000" y2="0.000">
      <stop offset="0%" stop-color="#ffcc00"/>
      <stop offset="20%" stop-color="#ffd61f"/>
      <stop offset="56%" stop-color="#ffe956"/>
      <stop offset="100%" stop-color="#ffff99"/>
    </linearGradient>
    <linearGradient id="grad15" gradientUnits="objectBoundingBox" x1="1.207" y1="0.483" x2="0.000" y2="0.000">
      <stop offset="0%" stop-color="#ffcc00"/>
      <stop offset="20%" stop-color="#ffd61f"/>
      <stop offset="56%" stop-color="#ffe956"/>
      <stop offset="100%" stop-color="#ffff99"/>
    </linearGradient>
    <linearGradient id="grad16" gradientUnits="objectBoundingBox" x1="1.207" y1="0.483" x2="0.000" y2="0.000">
      <stop offset="0%" stop-color="#ffcc00"/>
      <stop offset="20%" stop-color="#ffd61f"/>
      <stop offset="56%" stop-color="#ffe956"/>
      <stop offset="100%" stop-color="#ffff99"/>
    </linearGradient>
    <linearGradient id="grad17" gradientUnits="objectBoundingBox" x1="1.207" y1="0.483" x2="0.000" y2="0.000">
      <stop offset="0%" stop-color="#ffcc00"/>
      <stop offset="20%" stop-color="#ffd61f"/>
      <stop offset="56%" stop-color="#ffe956"/>
      <stop offset="100%" stop-color="#ffff99"/>
    </linearGradient>
    <linearGradient id="grad18" gradientUnits="objectBoundingBox" x1="1.156" y1="0.765" x2="0.000" y2="0.000">
      <stop offset="0%" stop-color="#ffcc00"/>
      <stop offset="20%" stop-color="#ffd61f"/>
      <stop offset="56%" stop-color="#ffe956"/>
      <stop offset="100%" stop-color="#ffff99"/>
    </linearGradient>
    <linearGradient id="grad19" gradientUnits="objectBoundingBox" x1="0.000" y1="0.000" x2="0.640" y2="1.193">
      <stop offset="17%" stop-color="#999999"/>
      <stop offset="44%" stop-color="#888888"/>
      <stop offset="80%" stop-color="#727272"/>
      <stop offset="100%" stop-color="#666666"/>
    </linearGradient>
    <linearGradient id="grad20" gradientUnits="objectBoundingBox" x1="1.202" y1="0.414" x2="0.000" y2="0.000">
      <stop offset="0%" stop-color="#cccccc"/>
      <stop offset="20%" stop-color="#d6d6d6"/>
      <stop offset="56%" stop-color="#e9e9e9"/>
      <stop offset="100%" stop-color="#ffffff"/>
    </linearGradient>
    <linearGradient id="grad21" gradientUnits="objectBoundingBox" x1="0.780" y1="-0.415" x2="-0.415" y2="0.220">
      <stop offset="19%" stop-color="#999999"/>
      <stop offset="20%" stop-color="#9a9a9a"/>
      <stop offset="56%" stop-color="#c8c8c8"/>
      <stop offset="100%" stop-color="#ffffff"/>
    </linearGradient>
  </defs>
  <g id="Vector 1">
    <path d="M 135.05,206.79 C 131.24,205.74 128.45,204.49 128.99,199.56 C 131.9,172.87 134.84,123.99 136.48,84.01 C 137.88,49.96 137.55,22.41 143.82,20 C 152.21,15.8 223.52,121.79 255.98,151.36 C 263.07,157.82 257.08,161.67 254.98,162.72 C 208.9,135.02 150.81,164.64 135.05,206.79 Z" fill="none" stroke="url(#grad1)" stroke-width="20" stroke-linejoin="miter" stroke-linecap="butt" stroke-miterlimit="13"/>
    <path d="M 191.26,119.57 C 223.12,116.74 252.24,147.95 255.79,184.59 C 262.02,244.26 233.33,265.66 205.41,266.54 C 177.49,267.42 145.46,244.26 139.79,191.33 C 136.24,154.69 159.4,122.4 191.26,119.57 Z" fill="url(#grad2)" stroke="url(#grad3)" stroke-width="20" stroke-linejoin="miter" stroke-linecap="butt" stroke-miterlimit="10"/>
    <path d="M 203.72,259.31 C 257.08,260.31 299.46,299.05 297.48,357.78 C 268.87,379.91 158.16,394.11 105.16,357.78 C 106.24,297.25 136.46,258.06 203.72,259.31 Z" fill="none" stroke="url(#grad4)" stroke-width="20" stroke-linejoin="round" stroke-linecap="butt"/>
    <path d="M 203.07,258.96 C 262.65,258.57 298.55,306.72 296.84,357.42 C 268.22,379.55 157.51,393.75 104.52,357.42 C 105.37,309.61 129.31,259.44 203.07,258.96 Z" fill="url(#grad5)"/>
    <path d="M 209.89,326.42 C 194.16,305.43 133.34,288.64 152.21,270.8 C 172.52,254.51 234.14,256.7 247.64,267.66 C 263.37,286.54 221.42,300.19 209.89,326.42 C 205.45,346.5 210.13,375.02 208.84,378.89" fill="url(#grad6)" stroke="url(#grad7)" stroke-width="5" stroke-linejoin="miter" stroke-linecap="butt" stroke-miterlimit="10"/>
    <path d="M 138.12,372.62 C 138.12,355.58 146.57,338.09 146.57,338.09 C 146.57,338.09 141.1,362.09 147.14,375.1 C 147.14,375.1 138.12,372.62 138.12,372.62 Z" fill="#333333"/>
    <path d="M 278.98,367.86 C 280.94,352.38 274.5,336.5 274.5,336.5 C 274.5,336.5 278.13,358.42 270.59,370.23 C 270.59,370.23 278.98,367.86 278.98,367.86 Z" fill="#333333"/>
    <path d="M 191.26,120.62 C 223.12,117.78 252.24,149 255.79,185.64 C 262.02,245.31 233.33,266.71 205.41,267.59 C 177.49,268.47 145.46,245.31 139.79,192.38 C 136.24,155.74 159.4,123.45 191.26,120.62 Z" fill="url(#grad8)"/>
    <path d="M 135.05,206.79 C 131.24,205.74 128.45,204.49 128.99,199.56 C 131.9,172.87 134.84,123.99 136.48,84.01 C 137.88,49.96 137.55,22.41 143.82,20 C 152.21,15.8 223.52,121.79 255.98,151.36 C 263.07,157.82 257.08,161.67 254.98,162.72 C 208.9,135.02 150.81,164.64 135.05,206.79 Z" fill="none" stroke="url(#grad9)" stroke-width="10" stroke-linejoin="miter" stroke-linecap="butt" stroke-miterlimit="13"/>
    <path d="M 135.05,206.79 C 131.24,205.74 128.45,204.49 128.99,199.56 C 131.9,172.87 134.84,123.99 136.48,84.01 C 137.88,49.96 137.55,22.41 143.82,20 C 152.21,15.8 223.52,121.79 255.98,151.36 C 263.07,157.82 257.08,161.67 254.98,162.72 C 208.9,135.02 150.81,164.64 135.05,206.79 Z" fill="url(#grad10)"/>
    <path d="M 216.88,107.1 C 216.88,107.1 216.6,113.76 216.6,113.76 C 216.6,113.76 215.63,124.1 215.63,124.1 C 215.63,124.1 208,115.48 208,115.48 C 208,115.48 196.99,118.81 196.99,118.81 C 196.99,118.81 200.94,108.13 200.94,108.13 C 200.94,108.13 191.49,99.84 191.49,99.84 C 191.49,99.84 203,99.94 203,99.94 C 203,99.94 204.63,91.22 204.63,91.22 C 204.63,91.22 216.88,107.1 216.88,107.1 Z" fill="url(#grad11)"/>
    <path d="M 138.33,127.55 C 138.33,127.55 146.57,120.69 146.57,120.69 C 146.57,120.69 145.84,131.19 145.84,131.19 C 145.84,131.19 156.79,135.25 156.79,135.25 C 156.79,135.25 146.15,140.07 146.15,140.07 C 146.15,140.07 147.02,150.5 147.02,150.5 C 147.02,150.5 138.39,144.44 138.39,144.44 C 138.39,144.44 133.65,147.4 133.65,147.4 C 133.65,147.4 134.53,125.43 134.53,125.43 C 134.53,125.43 138.33,127.55 138.33,127.55 Z" fill="url(#grad12)"/>
    <path d="M 160.2,64.87 C 160.2,64.87 169.17,61.71 169.17,61.71 C 169.17,61.71 165.79,70.82 165.79,70.82 C 165.79,70.82 173.11,77.28 173.11,77.28 C 173.11,77.28 163.72,78.76 163.72,78.76 C 163.72,78.76 161.75,88.04 161.75,88.04 C 161.75,88.04 155.6,80.82 155.6,80.82 C 155.6,80.82 146.63,83.97 146.63,83.97 C 146.63,83.97 150,74.82 150,74.82 C 150,74.82 142.69,68.41 142.69,68.41 C 142.69,68.41 152.08,66.92 152.08,66.92 C 152.08,66.92 154.04,57.6 154.04,57.6 C 154.04,57.6 160.2,64.87 160.2,64.87 Z" fill="url(#grad13)"/>
    <path d="M 191.26,147.13 C 191.26,147.13 201.4,142.58 201.4,142.58 C 201.4,142.58 198.35,153.53 198.35,153.53 C 198.35,153.53 180.34,159.72 180.34,159.72 C 180.34,159.72 171.21,152.95 171.21,152.95 C 171.21,152.95 182.01,150.31 182.01,150.31 C 182.01,150.31 183.38,139.26 183.38,139.26 C 183.38,139.26 191.26,147.13 191.26,147.13 Z" fill="url(#grad14)"/>
    <path d="M 248.81,359.22 C 248.81,359.22 257.78,356.06 257.78,356.06 C 257.78,356.06 254.4,365.18 254.4,365.18 C 254.4,365.18 261.72,371.63 261.72,371.63 C 261.72,371.63 252.33,373.12 252.33,373.12 C 252.33,373.12 244.21,375.17 244.21,375.17 C 244.21,375.17 236.1,376.79 236.1,376.79 C 236.1,376.79 238.61,369.17 238.61,369.17 C 238.61,369.17 231.31,362.76 231.31,362.76 C 231.31,362.76 240.69,361.28 240.69,361.28 C 240.69,361.28 242.65,351.96 242.65,351.96 C 242.65,351.96 248.81,359.22 248.81,359.22 Z" fill="url(#grad15)"/>
    <path d="M 176.45,333.51 C 176.45,333.51 185.42,330.35 185.42,330.35 C 185.42,330.35 182.05,339.47 182.05,339.47 C 182.05,339.47 189.36,345.92 189.36,345.92 C 189.36,345.92 179.97,347.41 179.97,347.41 C 179.97,347.41 178,356.68 178,356.68 C 178,356.68 171.85,349.46 171.85,349.46 C 171.85,349.46 162.89,352.62 162.89,352.62 C 162.89,352.62 166.25,343.46 166.25,343.46 C 166.25,343.46 158.95,337.05 158.95,337.05 C 158.95,337.05 168.34,335.57 168.34,335.57 C 168.34,335.57 170.3,326.25 170.3,326.25 C 170.3,326.25 176.45,333.51 176.45,333.51 Z" fill="url(#grad16)"/>
    <path d="M 260.87,297.83 C 260.87,297.83 269.84,294.67 269.84,294.67 C 269.84,294.67 266.46,303.79 266.46,303.79 C 266.46,303.79 273.78,310.24 273.78,310.24 C 273.78,310.24 264.39,311.73 264.39,311.73 C 264.39,311.73 262.42,321 262.42,321 C 262.42,321 256.27,313.78 256.27,313.78 C 256.27,313.78 247.31,316.94 247.31,316.94 C 247.31,316.94 250.67,307.78 250.67,307.78 C 250.67,307.78 243.37,301.37 243.37,301.37 C 243.37,301.37 252.75,299.89 252.75,299.89 C 252.75,299.89 254.71,290.57 254.71,290.57 C 254.71,290.57 260.87,297.83 260.87,297.83 Z" fill="url(#grad17)"/>
    <path d="M 128.08,293.49 C 128.08,293.49 138.59,291.4 138.59,291.4 C 138.59,291.4 132.94,300.28 132.94,300.28 C 132.94,300.28 140.62,309.08 140.62,309.08 C 140.62,309.08 128.98,308.23 128.98,308.23 C 128.98,308.23 124.76,317.82 124.76,317.82 C 124.76,317.82 120.07,308.37 120.07,308.37 C 120.07,308.37 114.5,308.7 114.5,308.7 C 114.5,308.7 125.75,289.82 125.75,289.82 C 125.75,289.82 128.08,293.49 128.08,293.49 Z" fill="url(#grad18)"/>
    <path d="M 221.05,260.88 C 241.6,258.33 242.97,249.96 254.42,224.56 C 256.09,235.23 242.8,266.11 261.3,289.82 C 237.25,301.86 162.11,257.57 161.08,243.82 C 170.61,249.6 199.58,263.55 221.05,260.88 Z" fill="none" stroke="url(#grad19)" stroke-width="10" stroke-linejoin="round" stroke-linecap="butt"/>
    <path d="M 222.12,260.82 C 242.67,258.27 240.76,249.8 254.42,224.56 C 256.27,236.64 243.45,258.54 260.23,289.88 C 236.18,301.92 163.24,258.58 162.21,244.83 C 171.74,250.61 200.65,263.49 222.12,260.82 Z" fill="url(#grad20)"/>
    <path d="M 222.12,260.82 C 242.67,258.27 240.76,249.8 254.42,224.56 C 256.27,236.64 243.45,258.54 260.23,289.88 C 253.93,291.79 249.21,279.2 249.21,279.2 C 249.21,279.2 244.49,286.54 244.49,286.54 C 244.49,286.54 236.63,273.43 236.63,273.43 C 236.63,273.43 231.91,278.67 231.91,278.67 C 231.91,278.67 225.62,270.28 225.62,270.28 C 225.62,270.28 219.33,276.05 219.33,276.05 C 219.33,276.05 215.13,267.66 215.13,267.66 C 215.13,267.66 208.31,272.38 208.31,272.38 C 208.31,272.38 203.6,263.98 203.6,263.98 C 187.63,256.88 176.1,254.42 173.71,250.34 C 178.43,252.96 200.65,263.49 222.12,260.82 Z" fill="url(#grad21)"/>
  </g>
</svg>