<?xml version="1.0" encoding="UTF-8"?>
<svg xmlns="http://www.w3.org/2000/svg" width="320" height="320" viewBox="0 0 320 320">
  <defs>
    <linearGradient id="grad1" gradientUnits="objectBoundingBox" x1="0.000" y1="0.000" x2="1.088" y2="0.893">
      <stop offset="0%" stop-color="#cc9900"/>
      <stop offset="100%" stop-color="#990000"/>
    </linearGradient>
    <linearGradient id="grad2" gradientUnits="objectBoundingBox" x1="0.043" y1="1.040" x2="0.000" y2="0.000">
      <stop offset="0%" stop-color="#990000"/>
      <stop offset="100%" stop-color="#cc9900"/>
    </linearGradient>
    <linearGradient id="grad3" gradientUnits="objectBoundingBox" x1="1.088" y1="0.893" x2="0.000" y2="0.000">
      <stop offset="0%" stop-color="#009900"/>
      <stop offset="100%" stop-color="#0083d7"/>
    </linearGradient>
    <linearGradient id="grad4" gradientUnits="objectBoundingBox" x1="0.000" y1="0.000" x2="1.088" y2="0.893">
      <stop offset="0%" stop-color="#cccccc"/>
      <stop offset="100%" stop-color="#999999"/>
    </linearGradient>
    <linearGradient id="grad5" gradientUnits="objectBoundingBox" x1="0.000" y1="0.000" x2="1.088" y2="0.893">
      <stop offset="0%" stop-color="#cc9900"/>
      <stop offset="100%" stop-color="#990000"/>
    </linearGradient>
    <linearGradient id="grad6" gradientUnits="objectBoundingBox" x1="0.000" y1="0.000" x2="0.245" y2="1.160">
      <stop offset="0%" stop-color="#ff3300"/>
      <stop offset="95%" stop-color="#ffcc00"/>
      <stop offset="100%" stop-color="#ffcc00"/>
    </linearGradient>
    <linearGradient id="grad7" gradientUnits="objectBoundingBox" x1="0.043" y1="1.040" x2="0.000" y2="0.000">
      <stop offset="0%" stop-color="#990000"/>
      <stop offset="100%" stop-color="#cc9900"/>
    </linearGradient>
    <linearGradient id="grad8" gradientUnits="objectBoundingBox" x1="0.437" y1="-0.496" x2="-0.496" y2="0.563">
      <stop offset="0%" stop-color="#ffffff"/>
      <stop offset="100%" stop-color="#ffdb9d"/>
    </linearGradient>
    <linearGradient id="grad9" gradientUnits="objectBoundingBox" x1="1.088" y1="0.893" x2="0.000" y2="0.000">
      <stop offset="0%" stop-color="#009900"/>
      <stop offset="100%" stop-color="#0083d7"/>
    </linearGradient>
    <linearGradient id="grad10" gradientUnits="objectBoundingBox" x1="0.067" y1="1.059" x2="0.000" y2="0.000">
      <stop offset="0%" stop-color="#ff3300"/>
      <stop offset="95%" stop-color="#ffcc00"/>
      <stop offset="100%" stop-color="#ffcc00"/>
    </linearGradient>
    <linearGradient id="grad11" gradientUnits="objectBoundingBox" x1="1.137" y1="0.808" x2="0.000" y2="0.000">
      <stop offset="0%" stop-color="#009900"/>
      <stop offset="95%" stop-color="#0099ff"/>
      <stop offset="100%" stop-color="#0099ff"/>
    </linearGradient>
    <linearGradient id="grad12" gradientUnits="objectBoundingBox" x1="0.000" y1="0.000" x2="1.088" y2="0.893">
      <stop offset="0%" stop-color="#0099ff" stop-opacity="0.00"/>
      <stop offset="60%" stop-color="#ffffff" stop-opacity="0.60"/>
      <stop offset="100%" stop-color="#ffffff"/>
    </linearGradient>
    <linearGradient id="grad13" gradientUnits="objectBoundingBox" x1="0.000" y1="0.000" x2="1.088" y2="0.893">
      <stop offset="0%" stop-color="#cc9900"/>
      <stop offset="100%" stop-color="#990000"/>
    </linearGradient>
    <linearGradient id="grad14" gradientUnits="objectBoundingBox" x1="1.137" y1="0.808" x2="0.000" y2="0.000">
      <stop offset="0%" stop-color="#ccffcc"/>
      <stop offset="95%" stop-color="#b4e2ff" stop-opacity="0.05"/>
      <stop offset="100%" stop-color="#b4e2ff" stop-opacity="0.00"/>
    </linearGradient>
    <linearGradient id="grad15" gradientUnits="objectBoundingBox" x1="0.928" y1="-0.259" x2="-0.259" y2="0.072">
      <stop offset="0%" stop-color="#cccccc"/>
      <stop offset="68%" stop-color="#ffffff"/>
      <stop offset="100%" stop-color="#ffffff"/>
    </linearGradient>
    <linearGradient id="grad16" gradientUnits="objectBoundingBox" x1="0.000" y1="0.000" x2="1.196" y2="0.375">
      <stop offset="0%" stop-color="#cccccc"/>
      <stop offset="19%" stop-color="#999999"/>
      <stop offset="49%" stop-color="#666666"/>
      <stop offset="100%" stop-color="#666666"/>
    </linearGradient>
    <linearGradient id="grad17" gradientUnits="objectBoundingBox" x1="0.149" y1="1.114" x2="0.000" y2="0.000">
      <stop offset="0%" stop-color="#ffffff"/>
      <stop offset="25%" stop-color="#ffffff" stop-opacity="0.91"/>
      <stop offset="68%" stop-color="#ffffff" stop-opacity="0.76"/>
      <stop offset="100%" stop-color="#ffffff" stop-opacity="0.65"/>
    </linearGradient>
    <linearGradient id="grad18" gradientUnits="objectBoundingBox" x1="0.000" y1="0.000" x2="1.206" y2="0.547">
      <stop offset="0%" stop-color="#cccccc" stop-opacity="0.40"/>
      <stop offset="100%" stop-color="#333333" stop-opacity="0.70"/>
    </linearGradient>
    <radialGradient id="grad19" gradientUnits="userSpaceOnUse" cx="73.93" cy="213.28" r="26.36" fx="73.93" fy="213.28">
      <stop offset="0%" stop-color="#0066cc"/>
      <stop offset="100%" stop-color="#990000" stop-opacity="0.68"/>
    </radialGradient>
    <radialGradient id="grad20" gradientUnits="userSpaceOnUse" cx="74.47" cy="213.1" r="23.08" fx="74.47" fy="213.1">
      <stop offset="0%" stop-color="#ffcc00"/>
      <stop offset="100%" stop-color="#ff3300"/>
    </radialGradient>
    <linearGradient id="grad21" gradientUnits="objectBoundingBox" x1="1.137" y1="0.808" x2="0.000" y2="0.000">
      <stop offset="0%" stop-color="#333333" stop-opacity="0.69"/>
      <stop offset="100%" stop-color="#333333" stop-opacity="0.00"/>
    </linearGradient>
    <linearGradient id="grad22" gradientUnits="objectBoundingBox" x1="0.000" y1="0.000" x2="0.245" y2="1.160">
      <stop offset="0%" stop-color="#ff3300"/>
      <stop offset="95%" stop-color="#ffcc00"/>
      <stop offset="100%" stop-color="#ffcc00"/>
    </linearGradient>
    <linearGradient id="grad23" gradientUnits="objectBoundingBox" x1="0.944" y1="1.050" x2="0.000" y2="0.000">
      <stop offset="0%" stop-color="#333333"/>
      <stop offset="100%" stop-color="#333333" stop-opacity="0.00"/>
    </linearGradient>
    <linearGradient id="grad24" gradientUnits="objectBoundingBox" x1="0.711" y1="1.175" x2="0.000" y2="0.000">
      <stop offset="0%" stop-color="#333333"/>
      <stop offset="100%" stop-color="#333333" stop-opacity="0.00"/>
    </linearGradient>
    <linearGradient id="grad25" gradientUnits="objectBoundingBox" x1="1.141" y1="0.799" x2="0.000" y2="0.000">
      <stop offset="0%" stop-color="#ffffff"/>
      <stop offset="100%" stop-color="#b4e2ff"/>
    </linearGradient>
    <linearGradient id="grad26" gradientUnits="objectBoundingBox" x1="0.000" y1="0.000" x2="0.389" y2="1.198">
      <stop offset="0%" stop-color="#ffffff"/>
      <stop offset="100%" stop-color="#ffdb9d"/>
    </linearGradient>
    <linearGradient id="grad27" gradientUnits="objectBoundingBox" x1="0.437" y1="-0.496" x2="-0.496" y2="0.563">
      <stop offset="0%" stop-color="#ffffff"/>
      <stop offset="100%" stop-color="#ffdb9d"/>
    </linearGradient>
    <linearGradient id="grad28" gradientUnits="objectBoundingBox" x1="0.437" y1="-0.496" x2="-0.496" y2="0.563">
      <stop offset="0%" stop-color="#ffffff"/>
      <stop offset="100%" stop-color="#ffdb9d"/>
    </linearGradient>
  </defs>
  <g id="Vector 1">
    <path d="M 177.69,221.2 C 183.84,213.4 208.77,199.23 217.68,195.42 C 282.78,189.63 207.22,225.3 185.42,228.04 C 181.84,228.49 178.45,226.3 177.69,221.2 Z" fill="none" stroke="url(#grad1)" stroke-width="20" stroke-linejoin="round" stroke-linecap="butt"/>
    <path d="M 214.4,73.53 C 222.99,56.85 233.44,47.39 244.68,42.61 C 260.58,35.85 278.09,38.45 293.93,43.36 C 280.91,87.21 230.21,72.15 233.81,88.72 C 234.35,82.78 212.15,77.91 214.4,73.53 Z M 219.87,86.1 C 209.28,77.76 188.33,74.61 197.42,69.93 C 209.8,63.55 191.19,49.08 215.65,23.16 C 236.54,29.77 244.81,37.67 244.89,46.75 C 244.98,56.58 234.96,68.55 219.87,86.1 Z" fill="none" stroke="url(#grad2)" stroke-width="20" stroke-linejoin="round" stroke-linecap="butt"/>
    <path d="M 55.23,164.11 C 12.02,218.75 24.76,278.1 46.84,291.81 C 71.27,306.98 163.78,294.53 212.78,217.01 C 240.31,173.46 244.91,142.36 241.13,104.47 C 237.36,88.37 240.63,88.81 238.75,80.76 C 236.86,72.71 203.02,65 194.1,69.93 C 165.78,86.03 109.68,89.53 55.23,164.11 Z" fill="none" stroke="url(#grad3)" stroke-width="20" stroke-linejoin="round" stroke-linecap="butt"/>
    <path d="M 56.03,295.1 C 58.73,299.38 57.19,296.75 58.73,299.38 C 45.13,301.59 27.23,301.62 30.9,272.8 C 33.3,253.89 57.8,265.4 82.76,261.46" fill="none" stroke="url(#grad4)" stroke-width="20" stroke-linejoin="round" stroke-linecap="butt"/>
    <path d="M 219.37,222.09 C 284.47,216.3 208.91,251.97 187.11,254.71 C 186.14,254.83 185.19,254.76 184.3,254.49" fill="none" stroke="url(#grad5)" stroke-width="20" stroke-linejoin="round" stroke-linecap="butt"/>
    <path d="M 179.38,247.87 C 185.54,240.07 210.47,225.9 219.37,222.09 C 284.47,216.3 208.91,251.97 187.11,254.71 C 183.53,255.16 180.14,252.97 179.38,247.87 Z" fill="url(#grad6)"/>
    <path d="M 214.4,73.53 C 222.99,56.85 233.44,47.39 244.68,42.61 C 260.58,35.85 278.09,38.45 293.93,43.36 C 280.91,87.21 230.21,72.15 233.81,88.72 C 234.35,82.78 212.15,77.91 214.4,73.53 Z M 219.87,86.1 C 209.28,77.76 188.33,74.61 197.42,69.93 C 209.8,63.55 191.19,49.08 215.65,23.16 C 236.54,29.77 244.81,37.67 244.89,46.75 C 244.98,56.58 234.96,68.55 219.87,86.1 Z" fill="none" stroke="url(#grad7)" stroke-width="10" stroke-linejoin="round" stroke-linecap="butt"/>
    <path d="M 183.52,252.63 C 191.74,256.7 230.13,241.76 245.21,226.81 C 224.64,237.68 190.37,253.69 179.4,247.19 C 179.4,251.09 180.77,251.33 183.52,252.63 Z" fill="url(#grad8)"/>
    <path d="M 55.23,164.11 C 12.02,218.75 24.76,278.1 46.84,291.81 C 71.27,306.98 163.78,294.53 212.78,217.01 C 240.31,173.46 244.73,139.64 241.13,104.47 C 238.49,93.2 239.3,90.04 239.38,86.39 C 239.41,84.83 239.31,83.17 238.75,80.76 C 236.86,72.71 203.02,65 194.1,69.93 C 165.78,86.03 109.68,89.53 55.23,164.11 Z" fill="none" stroke="url(#grad9)" stroke-width="10" stroke-linejoin="round" stroke-linecap="butt"/>
    <path d="M 214.4,73.53 C 222.99,56.85 233.44,47.39 244.68,42.61 C 260.58,35.85 278.09,38.45 293.93,43.36 C 280.91,87.21 230.21,72.15 233.81,88.72 C 234.35,82.78 212.15,77.91 214.4,73.53 Z M 219.87,86.1 C 209.28,77.76 188.33,74.61 197.42,69.93 C 209.8,63.55 191.19,49.08 215.65,23.16 C 236.54,29.77 244.81,37.67 244.89,46.75 C 244.98,56.58 234.96,68.55 219.87,86.1 Z" fill="url(#grad10)"/>
    <path d="M 55.23,164.11 C 12.02,218.75 24.76,278.1 46.84,291.81 C 71.27,306.98 163.78,294.53 212.78,217.01 C 240.31,173.46 244.56,136.93 242.41,103.03 C 236.35,86.35 240.63,88.81 238.75,80.76 C 236.86,72.71 203.02,65 194.1,69.93 C 165.78,86.03 109.68,89.53 55.23,164.11 Z" fill="url(#grad11)"/>
    <path d="M 154.73,236.48 C 141.06,259.11 120.12,264.68 106.15,271.22 C 88.37,279.53 75.58,282.64 73.09,291.95 C 72.84,292.91 77.25,295.66 89.77,294.99 C 94.4,294.74 100.01,294.88 107.24,293.08 C 142.78,284.24 184.85,261.2 212.78,217.01 C 242.3,170.31 246.95,131.34 240.61,96.34 C 239.95,92.69 239.61,83.85 239.26,78.43 C 235.25,80.04 236,95.07 236.23,98.76 C 239.82,156.54 174.83,187.03 152.49,201.22 C 160.02,211.64 158.36,231.89 154.73,236.48 Z" fill="url(#grad12)"/>
    <path d="M 178.37,221.16 C 184.53,213.36 209.46,199.18 218.36,195.38 C 283.46,189.59 207.9,225.26 186.1,228 C 182.52,228.44 179.13,226.26 178.37,221.16 Z" fill="none" stroke="url(#grad13)" stroke-width="10" stroke-linejoin="round" stroke-linecap="butt"/>
    <path d="M 33.15,203.57 C 22.44,233.94 25.89,261.98 35.2,278.73 C 34.09,261.71 50.84,254.65 55.72,256.27 C 93.61,268.88 149.69,243.6 140.7,210.13 C 127.43,174.19 65.86,178.04 33.15,203.57 Z" fill="url(#grad14)"/>
    <path d="M 117.29,252.43 C 108.28,257.72 79.42,263.52 63.86,267.61 C 47.01,269.42 40.9,289.82 55.48,295.77 C 62.03,298.45 58.67,302.87 47.64,301.16 C 35.73,299.32 26.13,291.49 31.87,270.01 C 36.79,251.59 50.01,250.54 74.87,255.08 C 102.67,260.15 122.71,249.24 117.29,252.43 Z" fill="url(#grad15)"/>
    <path d="M 115.83,251.16 C 106.82,256.45 94.89,267.44 73.08,270.16 C 58.22,271.76 48.93,288 55.78,295.38 C 58.47,299.67 56.93,297.04 58.47,299.67 C 44.88,301.88 33.72,295.71 39.41,275.33 C 44.54,256.96 57.54,265.69 82.51,261.75 C 111.07,257.24 121.25,247.97 115.83,251.16 Z" fill="url(#grad16)"/>
    <path d="M 35,202.79 C 52.97,179.59 79.24,169.41 112.46,174.93 C 145.69,180.45 197.2,240.27 93.52,267.53 C 78.73,272.53 56.66,271.19 55.05,288.99 C 53.43,306.79 94.13,298.8 102.87,293.63 C 101.76,297.78 29.86,316 44.7,277.38 C 50.59,262.04 66.07,267.88 94.37,259.31 C 195.35,227.14 112.72,145.98 35,202.79 Z" fill="url(#grad17)"/>
    <path d="M 143.77,193.6 C 152.15,195.8 186.8,244.01 100.79,273.88 C 84.55,277.62 46.25,301.79 102.87,293.63 C 98.24,298.55 45.22,307.3 55.99,282.12 C 60.12,271.96 67.87,274.57 96.17,266 C 158.59,253.94 164.04,210.03 143.77,193.6 Z" fill="url(#grad18)"/>
    <path d="M 55.9,208.06 C 60.91,200.34 71.45,195.62 80.54,196.95 C 90.55,198.4 96.98,206.85 93.47,216.71 C 89.41,228.11 74.81,235.07 63.1,230.98 C 52.73,227.37 50.26,216.75 55.9,208.06 Z" fill="url(#grad19)"/>
    <path d="M 58.29,208.12 C 62.73,201.1 72.03,196.78 80.01,197.94 C 88.81,199.22 94.44,206.85 91.3,215.81 C 87.68,226.16 74.81,232.53 64.52,228.88 C 55.41,225.65 53.29,216.03 58.29,208.12 Z" fill="url(#grad20)"/>
    <path d="M 163.4,174.67 C 110.97,149.35 77.28,159.62 49.15,170.91 C 52.22,165.65 60.52,155.22 68.21,146.58 C 97.45,131.14 154.75,146.62 163.4,174.67 Z" fill="url(#grad21)"/>
    <path d="M 65.79,208.52 C 67.95,205.05 72.48,202.93 76.39,203.51 C 80.69,204.15 83.44,207.92 81.92,212.35 C 80.16,217.46 73.88,220.6 68.85,218.79 C 64.4,217.18 63.35,212.42 65.79,208.52 Z" fill="#333333"/>
    <path d="M 65,204.81 C 66.33,202.94 69.12,201.8 71.52,202.12 C 74.17,202.46 75.87,204.5 74.94,206.88 C 73.86,209.64 69.99,211.32 66.89,210.34 C 64.15,209.47 63.5,206.9 65,204.81 Z" fill="#ffffff"/>
    <path d="M 177.47,221.35 C 183.62,213.55 208.55,199.38 217.46,195.57 C 282.56,189.78 207,225.45 185.2,228.19 C 181.62,228.64 178.23,226.45 177.47,221.35 Z" fill="url(#grad22)"/>
    <path d="M 187.5,143.22 C 147.29,115.77 106.16,116.98 88.12,124.91 C 92.06,120.74 101.44,113.52 110.35,107.19 C 128.73,104.68 168.58,104.91 187.5,143.22 Z" fill="url(#grad23)"/>
    <path d="M 211.43,109.05 C 178.75,92.03 162.13,87.92 135.45,94.27 C 140.11,90.9 146.31,88.47 156.26,83.9 C 175.06,81.27 196.45,89.56 211.43,109.05 Z" fill="url(#grad24)"/>
    <path d="M 55.23,164.11 C 23.26,204.54 21.92,247.56 32.33,272.75 C 28.49,238.63 39.43,207.82 53.8,182.87 C 88.99,121.8 159.79,88.05 194.1,69.93 C 165.78,86.03 109.68,89.53 55.23,164.11 Z" fill="url(#grad25)"/>
    <path d="M 201.34,68.51 C 202.71,59 201.75,49.11 203.18,43.34 C 206.51,29.86 213.13,28.43 215.05,23.68 C 210.93,29.11 202.71,57.64 217.79,69.87 C 213.68,68.51 206.82,67.5 201.34,68.51 Z" fill="url(#grad26)"/>
    <path d="M 243.84,43.38 C 254.8,37.94 269.88,35.22 293.19,43.38 C 256.17,39.3 246.58,50.17 235.61,56.96 C 235.61,52.89 241.09,44.74 243.84,43.38 Z" fill="url(#grad27)"/>
    <path d="M 182.15,226.81 C 190.37,230.89 228.76,215.94 242.46,200.99 C 221.9,211.86 189,227.87 178.03,221.37 C 178.03,225.27 179.4,225.51 182.15,226.81 Z" fill="url(#grad28)"/>
  </g>
</svg>